/* XPM */
static char *parcittox[] = {
/* columns rows colors chars-per-pixel */
"60 60 256 2",
"   c #000000",
".  c #0C0D0D",
"X  c #1B1B1C",
"o  c #013C2B",
"O  c #003431",
"+  c #272829",
"@  c #363637",
"#  c #312327",
"$  c #004C1C",
"%  c #015514",
"&  c #005C0C",
"*  c #026606",
"=  c #096C17",
"-  c #004525",
";  c #014A21",
":  c #196C2E",
">  c #287838",
",  c #247139",
"<  c #384837",
"1  c #55522F",
"2  c #4E693B",
"3  c #60712D",
"4  c #132578",
"5  c #293456",
"6  c #255555",
"7  c #2E544A",
"8  c #266645",
"9  c #2B6656",
"0  c #2E724E",
"q  c #356568",
"w  c #2E576E",
"e  c #46484B",
"r  c #6A6E72",
"t  c #666D73",
"y  c #6F7072",
"u  c #727272",
"i  c #7A7B7D",
"p  c #6A6B68",
"a  c #9C0C00",
"s  c #960A00",
"d  c #810C0B",
"f  c #A20F00",
"g  c #AC1200",
"h  c #A61000",
"j  c #B41500",
"k  c #BD1900",
"l  c #B81700",
"z  c #B72807",
"x  c #C41B00",
"c  c #CA1E00",
"v  c #CC2202",
"b  c #CC2906",
"n  c #D32200",
"m  c #DB2500",
"M  c #D12B06",
"N  c #CB3E13",
"B  c #EC2B00",
"V  c #E42800",
"C  c #F42E00",
"Z  c #FB3100",
"A  c #F63906",
"S  c #EF3606",
"D  c #9F683A",
"F  c #CA7B0A",
"G  c #D47F25",
"H  c #F47423",
"J  c #856D55",
"K  c #A87644",
"L  c #028908",
"P  c #018404",
"I  c #278923",
"U  c #19B233",
"Y  c #35BC3A",
"T  c #16AA1A",
"R  c #2DC633",
"E  c #4FB954",
"W  c #588755",
"Q  c #49D349",
"!  c #50D150",
"~  c #67DD67",
"^  c #75D076",
"/  c #71D669",
"(  c #D38515",
")  c #FF8C00",
"_  c #FF9200",
"`  c #FF9B01",
"'  c #F09010",
"]  c #FFA301",
"[  c #FFAD17",
"{  c #D58125",
"}  c #DB8527",
"|  c #DF8927",
" . c #E08A27",
".. c #F78127",
"X. c #FB8327",
"o. c #F98A2A",
"O. c #FB952D",
"+. c #FC9E30",
"@. c #FFB52D",
"#. c #FBA834",
"$. c #FAB83A",
"%. c #FFDD29",
"&. c #F8C43D",
"*. c #F4CF28",
"=. c #FFE42B",
"-. c #FFEB2E",
";. c #FFEA37",
":. c #A99172",
">. c #B9945C",
",. c #FFBB4F",
"<. c #FFBE50",
"1. c #FFB160",
"2. c #92D878",
"3. c #F9CA41",
"4. c #FFC251",
"5. c #FFC45A",
"6. c #F8D043",
"7. c #FFCC65",
"8. c #FFCF6E",
"9. c #FBC561",
"0. c #FFD275",
"q. c #FFE563",
"w. c #FFEB65",
"e. c #FFF067",
"r. c #071C99",
"t. c #0E288A",
"y. c #142886",
"u. c #07239D",
"i. c #0A2C9B",
"p. c #172A97",
"a. c #173297",
"s. c #173CA3",
"d. c #0635B9",
"f. c #0931A7",
"g. c #283A8A",
"h. c #354F93",
"j. c #1743A5",
"k. c #174BA9",
"l. c #1753AA",
"z. c #1753A7",
"x. c #0B58BF",
"c. c #3554AC",
"v. c #3D628F",
"b. c #4E69B2",
"n. c #6778B0",
"m. c #455BA0",
"M. c #0239CA",
"N. c #003AD0",
"B. c #0B43D2",
"V. c #0740D1",
"C. c #134AD4",
"Z. c #184ED5",
"A. c #1D53D6",
"S. c #295DD9",
"D. c #2458D8",
"F. c #2655C2",
"G. c #2E61DA",
"H. c #3264DB",
"J. c #3B6CDD",
"K. c #3768DA",
"L. c #3873D5",
"P. c #4372DE",
"I. c #4976DA",
"U. c #4A70CC",
"Y. c #4C7BE2",
"T. c #4578E4",
"R. c #507EE2",
"E. c #7285B9",
"W. c #7F8285",
"Q. c #77C886",
"!. c #7394D8",
"~. c #5582E3",
"^. c #5A86E4",
"/. c #5E8AE6",
"(. c #638EE6",
"). c #688EE5",
"_. c #6B95E9",
"`. c #6A95E9",
"'. c #749DEC",
"]. c #789AE8",
"[. c #729DF0",
"{. c #7CA4ED",
"}. c #77A0EC",
"|. c #8C949D",
" X c #87929D",
".X c #9B9C9D",
"XX c #94959B",
"oX c #948895",
"OX c #8C98B5",
"+X c #A7AFB7",
"@X c #A9B1B8",
"#X c #B9BCBA",
"$X c #95B4A2",
"%X c #85D18C",
"&X c #86E786",
"*X c #9CE797",
"=X c #A4F1A4",
"-X c #B9F3B5",
";X c #ACE9A8",
":X c #FFCB82",
">X c #F1C780",
",X c #FFD385",
"<X c #FFDC89",
"1X c #FFD887",
"2X c #FFE48B",
"3X c #FFE98E",
"4X c #FFF19E",
"5X c #E0F7AF",
"6X c #A9B5C5",
"7X c #B9BEC3",
"8X c #84ABEF",
"9X c #86A7EB",
"0X c #8BB2EB",
"qX c #92B4EC",
"wX c #9CBCEE",
"eX c #98B5ED",
"rX c #8DB3F1",
"tX c #95BBF3",
"yX c #9ABEF3",
"uX c #91B6F2",
"iX c #9CAFE4",
"pX c #A3BCF0",
"aX c #93A0C1",
"sX c #BBC8D7",
"dX c #B9CBD2",
"fX c #9EC1F3",
"gX c #A3C1EB",
"hX c #A3C4F3",
"jX c #A8C9F6",
"kX c #BACBF3",
"lX c #B8D6FB",
"zX c #D7D7D7",
"xX c #D5D8DB",
"cX c #C6CBD0",
"vX c #C3FCC3",
"bX c #CCF4C8",
"nX c #D2F6CD",
"mX c #FFFFDE",
"MX c #CBD8E8",
"NX c #C5D5F6",
"BX c #D3DDF6",
"VX c #D0D5E2",
"CX c #D6EBFF",
"ZX c #DDEEFF",
"AX c #D8E6FA",
"SX c #D1E3F5",
"DX c #E7E7E8",
"FX c #EAFFEA",
"GX c #E6ECF8",
"HX c #E3F1FF",
"JX c #ECF5FF",
"KX c #F1F7FE",
"LX c #F4FAFF",
"PX c #FDFEFF",
"IX c #F6F6F7",
"UX c None",
/* pixels */
"UXUXUXUXUXUXUXUXUXUXUXUXUXUXUXUXUXUXUXUXUXUXUXUXUXUXUXUXUXUXUXUXUXUXUXUXUXUXUXUXUXUXUXUXUXUXUXUXUXUXUXUXUXUXUXUXUXUXUXUX",
"UXUXUXUXUXUXUXUXUXUXUXUXUXUXUXUXUXUXUXUXUXUXUXUXUXUXUXUXUXUXUXUXUXUXUXUXUXUXUXUXUXUXUXUXUXUXUXUXUXUXUXUXUXUXUXUXUXUXUXUX",
"UXUXUXUXUXUXUXUXUXUXUXUXUXUXUXUXUXUXUXUXUXUXUXUXUXUXUXUXUXUXUXUXUXUXUXUXUXUXUXUXUXUXUXUXUXUXUXUXUXUXUXUXUXUXUXUXUXUXUXUX",
"UXUXUXUXUXUXUXUXUXUXUXUXUXUXUXUXUXUXUXUXUXUXUXq 9 9 8 , : : : = = * * * & UXUXUXUXUXUXUXUXUXUXUXUXUXUXUXUXUXUXUXUXUXUXUX",
"UXUXUXUXUXUXUXUXUXUXUXUXUXUXUXUXUXUXUXUXUXUXUX9 %XnXbX-X;X;X*X%X%X%XQ.I % UXUXUXUXUXUXUXUXUXUXUXUXUXUXUXUXUXUXUXUXUXUXUX",
"UXUXUXUXUXUXUXUXUXUXUXUXUXUXUXUXUXUXUXUXUXUX9 0 vXFXFXFXFXFXFXFXFXFXFX2.% $ UXUXUXUXUXUXUXUXUXUXUXUXUXUXUXUXUXUXUXUXUXUX",
"UXUXUXUXUXUXUXUXUXUXUXUXUXUXUXUXUXUXUXUXUXUX9 %X-XvXvXvXvXvXvXvXvXvXvX-XI $ UXUXUXUXUXUXUXUXUXUXUXUXUXUXUXUXUXUXUXUXUXUX",
"UXUXUXUXUXUXUXUXUXUXZ Z Z Z C C C C C B B 1 0 *X=X=X=X=X=X=X=X=X=X=X=X=X! ; # n n v v c c c c c x x UXUXUXUXUXUXUXUXUXUX",
"UXUXUXUXUXUXUXUXZ Z A A A A A A A S S S N 8 ^ &X&X&X&X&X&X&X&X&X&X&X&X&X^ : o z M M b b b b b b b b x k UXUXUXUXUXUXUXUX",
"UXUXUXUXUXUXUXUXZ H 1.8.5.5.5.5.5.5.5.5.W 0 ^ ~ ~ ~ ~ ~ ~ ~ ~ ~ ~ ~ ~ ~ ~ Y - 2 5.5.5.5.5.5.5.9.8.1.H k UXUXUXUXUXUXUXUX",
"UXUXUXUXUXUXUXUXZ X.:X5.) ) ) ) ) ) ) ( , E ! Q Q Q Q Q Q Q Q Q Q Q Q Q Q Q = o F ) ) ) ) ) ) _ 7.:X..k UXUXUXUXUXUXUXUX",
"UXUXUXUXUXUXUXUXZ X.:X<.) ) ) ) ) ) ) 3 , ! R R R R R R R R R R R R R R R R T o 1 ) ) ) ) ) ) ) 7.:X..k UXUXUXUXUXUXUXUX",
"UXUXUXUXUXUXUXUXZ X.:X<._ _ _ _ _ _ ( : E Y U U U U U U U U U U U U U U U U U = O F _ _ _ _ _ _ 7.:X..l UXUXUXUXUXUXUXUX",
"UXUXUXUXUXUXUXUXC X.:X<._ _ _ _ ( K 2 : Y L L L L L L L L L L L L L L L L L L P o < D ( _ _ _ _ 7.:X..l UXUXUXUXUXUXUXUX",
"UXUXUXUXUXUXUXUXC X.:X4._ _ ' v.x.L.9 : = * * * * * & & % % $ $ $ ; ; - - - - - o 5 F.f.w ' _ ` 7.:X..l UXUXUXUXUXUXUXUX",
"UXUXUXUXUXUXUXUXC X.:X4.` ` J L.lXCXdXW > > > > , , 8 8 8 8 8 6 6 6 6 6 6 6 6 6 q gXlXhXF.J ` ` 7.:X..j UXUXUXUXUXUXUXUX",
"UXUXUXUXUXUXUXUXC o.:X4.` ` c.0XPXPXPXPXPXDXzXzXzXzXzXzXzXzXzXDXIXPXPXPXPXPXPXLXLXLXLXJX`.g.` ` 7.:X..j UXUXUXUXUXUXUXUX",
"UXUXUXUXUXUXUXUXC o.:X4.` ` l.tXPXPXPXPXPXu                       + p 7XPXPXLXLXLXLXLXLX[.a.` ] 7.:X..j UXUXUXUXUXUXUXUX",
"UXUXUXUXUXUXUXUXB o.:X4.] ] l.tXPXPXPXPXPXu                             @ xXLXLXLXLXLXKX'.a.] ] 7.:X..j UXUXUXUXUXUXUXUX",
"UXUXUXUXUXUXUXUXB o.:X4.] ] z.tXPXPXPXPXPXu                               . cXLXLXLXKXKX'.a.] ] 7.:X..g UXUXUXUXUXUXUXUX",
"UXUXUXUXUXUXUXUXB O.:X4.] ] z.tXPXPXPXPXPXu       oXDXDXDXDXxX#XXX+         X GXLXKXKXKX'.a.@.@.7.:X..g UXUXUXUXUXUXUXUX",
"UXUXUXUXUXUXUXUXB O.,X4.[ [ z.yXPXPXPXPXPXu       .XPXPXPXPXPXPXPXLXi         W.KXKXKXJX}.a.7.7.7.:X..g UXUXUXUXUXUXUXUX",
"UXUXUXUXUXUXUXUXB O.,X5.[ [ l.yXPXPXPXPXPXu       .XPXPXPXPXPXPXPXLXLXe       + KXKXJXJX}.a.7.7.7.:X..g UXUXUXUXUXUXUXUX",
"UXUXUXUXUXUXUXUXB O.,X5.@.@.l.yXPXPXPXPXPXu       .XPXPXPXPXPXPXLXLXLX7X        DXJXJXJX`.p.7.7.7.:X..g UXUXUXUXUXUXUXUX",
"UXUXUXUXUXUXUXUXV O.,X5.$.$.l.yXPXPXPXPXPXu       .XPXPXPXPXPXLXLXLXLXDX        cXJXHXHXT.p.7.7.7.:X..h UXUXUXUXUXUXUXUX",
"UXUXUXUXUXUXUXUXV +.,X9.,.,.l.fXPXPXPXPXPXu       .XPXPXPXPXLXLXLXLXLXLX.       6XHXHXZXT.p.7.7.7.:X..h UXUXUXUXUXUXUXUX",
"UXUXUXUXUXUXUXUXV +.,X9.,.,.k.fXPXPXPXPXPXu       .XPXPXPXLXLXLXLXLXLXGX        dXHXZXZXT.p.7.7.7.:X..h UXUXUXUXUXUXUXUX",
"UXUXUXUXUXUXUXUXV +.1X9.,.,.k.fXPXPXPXPXPXu       .XPXPXLXLXLXLXLXLXKXdX        MXZXZXZXT.p.7.7.7.:X..f UXUXUXUXUXUXUXUX",
"UXUXUXUXUXUXUXUXV #.1X9.,.,.k.hXPXPXPXPXPXu       .XPXLXLXLXLXLXLXKXJXe       + ZXZXZXZXT.p.7.7.7.:Xo.f UXUXUXUXUXUXUXUX",
"UXUXUXUXUXUXUXUXm #.1X9.,.,.k.hXPXPXPXPXPXu       .XLXLXLXLXLXLXKXJX|.        t ZXZXZXCXY.p.7.7.7.:Xo.f UXUXUXUXUXUXUXUX",
"UXUXUXUXUXUXUXUXm #.1X9.,.,.k.hXPXPXPXPXPXu       .XLXLXLXLXKXxX@X7         . MXZXZXCXCXY.p.7.7.7.:Xo.a UXUXUXUXUXUXUXUX",
"UXUXUXUXUXUXUXUXm #.1X9.,.,.k.hXPXPXPXPXPXu         . . . .                 +XZXZXCXCXCXY.p.7.7.7.,Xo.a UXUXUXUXUXUXUXUX",
"UXUXUXUXUXUXUXUXm #.1X9.,.,.k.hXPXPXPXPXPXu                             X 6XZX6XE.n.b.b.c.y.:.9.7.,XO.a UXUXUXUXUXUXUXUX",
"UXUXUXUXUXUXUXUXm #.<X9.,.,.j.hXPXPXPXPXPXy                       . < |.AXaXb.K.K.H.G.S.D.Z.eXMXXX>XO.a UXUXUXUXUXUXUXUX",
"UXUXUXUXUXUXUXUXm #.<X9.,.,.j.hXPXPXPXPXPXy       r @X+X+X+X@X7XsXZXZXMXn.P.T.Y.Y.T.P.K.G.D.kXPXPXh.K a UXUXUXUXUXUXUXUX",
"UXUXUXUXUXUXUXUXn #.<X9.,.5.j.jXPXPXPXPXLXy       XXJXJXHXHXHXHXHXZXaXU.Y.~.^.^.^.~.R.T.J.H.NXPXJXN.iXoXUXUXUXUXUXUXUXUX",
"UXUXUXUXUXUXUXUXn $.<X7.9.7.j.jXPXPXPXLXLXr       XXJXHXHXHXHXHXZXOXI.~./.)._._._.`./.~.Y.P.KXPXBXN.NXPXn.UXUXUXUXUXUXUX",
"UXUXUXUXUXUXUXUXn $.<X7.7.7.j.wXLXLXLXLXKXr       |.HXHXHXHXHXZXsXU.~.(._.'.{.{.{.}._.(.~.{.PXPX9XB.GXPX9XUXUXUXUXUXUXUX",
"UXUXUXUXUXUXUXUXn $.2X7.7.7.j.0XLXLXKXKXJXr       |.HXHXHXHXZXZXn.R./._.{.8XrXuXrX8X{._.(.NXPXPXP.H.PXPX).d.UXUXUXUXUXUX",
"UXUXUXUXUXUXUXUXn $.2X7.7.7.j.0XLXKXKXJXJXr       |.HXHXHXZXZXOXI.^.`.}.8XuXfXhXfXtX8X{.qXPXPXBXS.9XPXPXZ.N.t.UXUXUXUXUX",
"UXUXUXUXUXUXUXUXv $.2X7.7.7.s.0XKXKXJXJXJXr       |.HXHXZXZXBXb.Y./._.{.rXfXjXlXjXhXuX8XGXPXPX).G.AXPXkXN.N.N.UXUXUXUXUX",
"UXUXUXUXUXUXUXUXv $.2X7.7.7.s.0XKXJXJXJXJXt       |.HXZXZXZXOXJ.Y./.'.8XuXhXlXNXlXjXtXNXPXPXkXJ.].PXPX^.N.N.N.t.UXUXUXUX",
"UXUXUXUXUXUXUXUXc $.2X7.7.7.s.qXJXJXJXJXJXt       |.ZXZXZXZXE.J.Y./._.8XuXhXlXlXlXjXlXPXPXKX/.Y.JXPXBXN.N.N.N.f.UXUXUXUX",
"UXUXUXUXUXUXUXUXc &.2X7.7.7.s.qXJXJXJXJXHXt        XZXZXZXCXb.K.Y.^._.{.rXyXjXjXjXyXNXPXPX9XY.kXPXPXP.N.N.N.N.d.UXUXUXUX",
"UXUXUXUXUXUXUXUXc &.2X7.7.7.s.qXJXJXJXHXHXt        XZXZXCXCXm.H.P.~.(.'.8XrXtXyXtXrX8XpXpX^.pXPXPXpXN.N.N.N.N.M.UXUXUXUX",
"UXUXUXUXUXUXUXUXc &.3X7.7.7.a.qXJXJXHXHXHXt        XZXCXCXCXc.G.J.Y.^.`.'.{.8X8X8X8X'._./._.PXPXBXZ.N.N.N.N.N.N.UXUXUXUX",
"UXUXUXUXUXUXUXUXc &.3X7.7.7.m.!.HXHXHXHXHXHXZXZXZXZXCXCXCXCXc.D.H.P.Y.^.)._.'.'.'.'.`./.~.T.9XGXH.B.N.N.N.N.N.M.UXUXUXUX",
"UXUXUXUXUXUXUXUXx 3.3X7.7.7.:.s.!.gXgXgXwXwXwXwXeXeXqXqXqXqXc.A.S.K.P.Y.~./.(.(.(./.^.R.T.J.G.D.C.N.N.N.N.N.N.d.UXUXUXUX",
"UXUXUXUXUXUXUXUXx 3.3X7.7.7.7.:.h.u.u.u.u.u.u.u.r.r.r.r.r.r.t.C.A.S.K.J.T.Y.~.~.~.Y.Y.P.K.G.D.C.N.N.N.N.N.N.N.i.UXUXUXUX",
"UXUXUXUXUXUXUXUXx 3.3X7.7.7.7.7.7.7.7.7.7.7.7.7.7.7.7.7.7.7.>.M.C.A.S.H.K.J.P.P.P.J.J.H.S.A.C.V.N.N.N.N.N.N.N.y.UXUXUXUX",
"UXUXUXUXUXUXUXUXx 6.4X0.8.8.8.8.8.8.8.8.8.8.8.8.8.8.8.8.8.8.8.h.N.B.Z.D.S.S.G.H.G.G.S.D.A.C.V.N.N.N.N.N.N.N.d.UXUXUXUXUX",
"UXUXUXUXUXUXUXUXk 6.4XmXmXmXmXmXmXmXmXmXmXmXmXmXmXmXmXmXmXmXmX#Xd.N.V.C.Z.A.A.A.A.A.Z.C.B.N.N.N.N.N.N.N.N.N.4 UXUXUXUXUX",
"UXUXUXUXUXUXUXUXk &.;.e.w.w.w.w.w.w.w.w.w.w.w.w.q.q.q.q.q.q.q.q.u N.N.N.N.B.B.B.B.B.V.N.N.N.N.N.N.N.N.N.N.i.UXUXUXUXUXUX",
"UXUXUXUXUXUXUXUXk $.-.-.-.-.-.-.-.=.=.=.=.=.=.=.=.=.%.%.%.%.%.%.*.h.N.N.N.N.N.N.N.N.N.N.N.N.N.N.N.N.N.N.d.UXUXUXUXUXUXUX",
"UXUXUXUXUXUXUXUXk k  . . .| | | | } } } } } } { { { { { { { { G G D s.N.N.N.N.N.N.N.N.N.N.N.N.N.N.N.N.d.4 UXUXUXUXUXUXUX",
"UXUXUXUXUXUXUXUXUXl l j j j j g g g g g h h h f f f a a a a a s s s d 5 M.N.N.N.N.N.N.N.N.N.N.N.N.N.y.# UXUXUXUXUXUXUXUX",
"UXUXUXUXUXUXUXUXUXUXUXUXUXUXUXUXUXUXUXUXUXUXUXUXUXUXUXUXUXUXUXUXUXUXUXUXUXd.N.N.N.N.N.N.N.N.N.N.M.y.UXUXUXUXUXUXUXUXUXUX",
"UXUXUXUXUXUXUXUXUXUXUXUXUXUXUXUXUXUXUXUXUXUXUXUXUXUXUXUXUXUXUXUXUXUXUXUXUXUX4 i.M.N.N.N.N.N.f.t.UXUXUXUXUXUXUXUXUXUXUXUX",
"UXUXUXUXUXUXUXUXUXUXUXUXUXUXUXUXUXUXUXUXUXUXUXUXUXUXUXUXUXUXUXUXUXUXUXUXUXUXUXUXUXUXUXUXUXUXUXUXUXUXUXUXUXUXUXUXUXUXUXUX",
"UXUXUXUXUXUXUXUXUXUXUXUXUXUXUXUXUXUXUXUXUXUXUXUXUXUXUXUXUXUXUXUXUXUXUXUXUXUXUXUXUXUXUXUXUXUXUXUXUXUXUXUXUXUXUXUXUXUXUXUX"
};
